<svg viewBox="0 0 1117 1024" xmlns="http://www.w3.org/2000/svg" width="17.453" height="16" fill="#000"><path d="M327.68 726.993l169.425 156.905a66.787 66.787 0 0 0 90.95 0l169.426-156.905h289.652c37.143 0 67.258 30.441 67.258 67.957V955.67c0 37.516-30.115 67.957-67.258 67.957h-975.5A67.63 67.63 0 0 1 4.375 955.67V794.95c0-37.516 30.115-67.957 67.258-67.957h256z"/><path d="M677.097 451.956h182.69c13.871 0 26.299 8.658 31.326 21.737 5.027 13.033 1.582 27.927-8.658 37.376l-317.16 293.702a33.373 33.373 0 0 1-45.429 0L202.66 511.069A34.21 34.21 0 0 1 194 473.647a33.652 33.652 0 0 1 31.419-21.644h182.644V72.145c0-37.515 30.115-67.956 67.258-67.956H609.84c37.19 0 67.304 30.44 67.304 67.956v379.811z"/></svg>